/* XPM */
static char *_c84cd0d74444148fbf483055c549745LK7LQVAYv1sCv4BC[] = {
/* columns rows colors chars-per-pixel */
"33 85 47 1 ",
"  c None",
". c #325052",
"X c #3F6058",
"o c #4F4551",
"O c #6C4A4B",
"+ c #784D47",
"@ c #624F5E",
"# c #78695D",
"$ c #4B7B73",
"% c #6F686A",
"& c #70686A",
"* c #A05C55",
"= c #8B645C",
"- c #9C6A59",
"; c #9B6B5C",
": c #AC6356",
"> c #A77062",
", c #A87162",
"< c #AF7A65",
"1 c #B98667",
"2 c #B0826C",
"3 c #A88174",
"4 c #C79869",
"5 c #C49B76",
"6 c #C3907E",
"7 c #CFA97E",
"8 c #349197",
"9 c #609A85",
"0 c #76B995",
"q c #4CD2D5",
"w c #948E8F",
"e c #B8B0A9",
"r c #CE9688",
"t c #CE9989",
"y c #D19E8A",
"u c #E2B39C",
"i c #E2C588",
"p c #E6C58E",
"a c #E7C2B0",
"s c #FDD5BD",
"d c #88EFFC",
"f c #D4DED4",
"g c #FDD5C3",
"h c #FEDCCD",
"j c #FFEBCC",
"k c #E2FFF9",
"l c #F1FFFE",
/* pixels */
"                                 ",
"                                 ",
"                                 ",
"                                 ",
"              XXXXXXXXX          ",
"            X$$$XXX$$$$XX        ",
"            $XXXX.XXXX$$$X       ",
"          XX$$$X...X$$$$$$X      ",
"         X$99X$X.XX$X$99$$$X     ",
"        X$99X$XXX$X$$$$999$$XX   ",
"        $99XX$$X$$$$9$$9909$$$X  ",
"       X$$9$0$$$$99$99$$9009$$X  ",
"       XX$$09$$$90$X09$X$0099$$  ",
"      XXXX09$$$9099$099$X$0099$X ",
"       X$09$$X$909$$9099$$9009$X ",
"        909$X3X$99$$$909$$$909$$X",
"       $99$33tX$9$$$$909$X$$999$X",
"       $$XXttut$$$3$$99$$XX$$9$X ",
"       $XX3uuuuu$X3$$9$$X.XX$$$X ",
"       XX3uu33utXt3$$$XX....XXX  ",
"       X ,uutt3uuut3X$X........  ",
"         ,ua33t3uut3X$...XXXX.   ",
"        O,a3qq3t3uu33X.XX$$$$X   ",
"        O,aq8kl3uuut,XX$XX$9$$X  ",
"       O,taq8dkl3uut,XX$X$$09$X  ",
"       O,usddkksssuu,X$$$X$$09$X ",
"       O,tassssjjsatXXX$$$$X$$$X ",
"        O,uasjjjjautX$$99$$$X$XX ",
"         O;tasjsaut;$X$$99$X$XX  ",
"          O;tuuatt;OXXXX$9$XXXX  ",
"           O;;;;;;Ot%  @@@XXX    ",
"            OOOOOOur+ @257@      ",
"              +uuuu++@pi227@     ",
"             +uuuu+::>p22257@    ",
"             +uu++::+++=-257@    ",
"            +:++:::+uur+==27@    ",
"           +::::::+uuuur@=27@    ",
"          +:11:1:>uuuuuro@27@    ",
"          +:1411:>uhhuur2=<@     ",
"          +:14111>uhhuur525      ",
"          +:1141:>hhhurr=i@      ",
"           +:11>ruhhuur>=@       ",
"            +::>hhhhur>=         ",
"            +::hhhhuur>          ",
"            +>hhhhuur>>>         ",
"           >>hhhhhuur>r>         ",
"         >>hhhhhhur>>+ur>        ",
"        >hhhhhhuur>>:+uur>       ",
"        >hhhhuuur>+++#uur>       ",
"        >hhhuurr>+###+rur>       ",
"        >hhurr>+1:+++:rur>       ",
"         >rrr>+11:::::>>>        ",
"          ++++:::::yy+++         ",
"             uyyuyy++:::         ",
"             ++++++::++:+        ",
"            +:11:::++uuy+        ",
"            :11:+++uuuuy++       ",
"            +1:+uuuuguuy++       ",
"            +::+uggguuyy++       ",
"           ++::+uggguuyy+:       ",
"           ++::+ugguuyy6+:+      ",
"          +>+::+ugguuyy6+:+      ",
"         +>>+::+ugguuy6+>>:+     ",
"         +>y+::+uguuy66+>>:+     ",
"         +y>+::+uuguyy6+>>:1+    ",
"        +yyy+:::+uuuyyy+>>>:1++  ",
"        +yyy+:::+uuuuyyy+>>::1:+ ",
"        +yyyu+::+:yuguyy+::::++  ",
"        +>yyy+:*:+>yugyyy+::+    ",
"       +w+++>+:::+>yyusyyy++     ",
" &&&   &wwww&+:::++>yyuuy&&      ",
"&wew&&&wwwww&+:::+++>yyu&w&      ",
"&wfewwwewwww& +++     y&www&     ",
"&wffeeewwww&          &wwwww&    ",
" &eefeeweww&         &wwwwwww&   ",
" &wweeweeww&         &wwwweww&   ",
"  &&wweeew&          &wwwweeww&  ",
"    &&wwew&          &weweeeew&  ",
"      &&&&          &wweewwew&   ",
"                    &weeweww&    ",
"                  &&weeeeww&     ",
"                 &weeeefee&      ",
"                 &efeffeww&      ",
"                 &weffee&&       ",
"                  &&&&&&         "
};
