/* XPM */
static char *e954d5ed356f467095f3052c88f4c4c9DHvWBVBfJQPDZJX5[] = {
/* columns rows colors chars-per-pixel */
"23 38 19 1 ",
"  c None",
". c #131313",
"X c #1C121C",
"o c #391F21",
"O c #272727",
"+ c gray24",
"@ c #571C27",
"# c #5D2C28",
"$ c #2A2F4E",
"% c #891E2B",
"& c #C42430",
"* c #8A4836",
"= c #BF6F4A",
"- c #E69C69",
"; c #0069AA",
": c gray52",
"> c #B4B4B4",
", c #F6CA9F",
"< c white",
/* pixels */
"                       ",
"                       ",
"                       ",
"                       ",
"          o##o         ",
"        o###oooo       ",
"       o###oooooo      ",
"       o####ooooo      ",
"      o#######oooo     ",
"      o#oo######ooo    ",
"      ##oo###ooooooo   ",
"     oooX=oo#ooooo     ",
"     $$o;-=Xooooooo    ",
"      *o---;<-ooo      ",
"       *-,,,,-oo       ",
"       @:-,,->o:       ",
"      @@::--<<>@%      ",
"      @#:><<>>@%&&     ",
"      @*#:>>@%%&&&%    ",
"      @**#@@%%&&&%.    ",
"      .@==*@%@%&%..    ",
"      .@O==*@@%%OO     ",
"      :@OO==*@@OOO     ",
"      :@OO%==**>><     ",
"      :@OO%%*** >>     ",
"      =@..%%%@@@><     ",
"      =@..O%%%@--,     ",
"       ...O%%%@-,,     ",
"       ...O+%%%@@      ",
"       ....O++%@O      ",
"       ....O+++OO      ",
"        ...OO++OO      ",
"        ....OOOOO      ",
"        ... OOOO       ",
"         ..  OOO       ",
"        ooo   OO       ",
"       --oo  **#       ",
"             ,,#       "
};
