/* XPM */
static char *df02d7e308a541b8b7594b4a0cafce76TuY8q1iy0eqtrpGR[] = {
/* columns rows colors chars-per-pixel */
"23 38 19 1 ",
"  c None",
". c #131313",
"X c #1C121C",
"o c #391F21",
"O c #272727",
"+ c gray24",
"@ c #571C27",
"# c #5D2C28",
"$ c #2A2F4E",
"% c #891E2B",
"& c #C42430",
"* c #8A4836",
"= c #BF6F4A",
"- c #E69C69",
"; c #0069AA",
": c gray52",
"> c #B4B4B4",
", c #F6CA9F",
"< c white",
/* pixels */
"                       ",
"                       ",
"                       ",
"                       ",
"                       ",
"          o##o         ",
"        o###oooo       ",
"       o###oooooo      ",
"      oo####oooooo     ",
"      o#######oooo     ",
"      o#oo######oooo   ",
"     o##oo###oooooo    ",
"     $ooX=oo#ooooo     ",
"     $$o;-=Xooooooo    ",
"      *o---;<-ooo      ",
"       *-,,,,-oo       ",
"       @:-,,->o:       ",
"      @@::--<<>@%&     ",
"      @#:><<>>@%&&%    ",
"      @*#:>>@%%&&%.    ",
"      @**#@@%%&&&.     ",
"      .@==*@%@%&%..    ",
"      :@O==*@@%%OOO    ",
"      :@OO==*@@O>><    ",
"      :@OO%==**  >>    ",
"      =@OOO%***@ ><    ",
"      =@..O%%%@@--,    ",
"      @@..O+%%%@-,,    ",
"      @...O+%%%@@@     ",
"       ...O++%%%@@     ",
"       ....O+++%@      ",
"        ...OO++OO      ",
"        ....OOOOO      ",
"        ... OOOO       ",
"         ..  OOO       ",
"        ooo   OO       ",
"       --oo  **#       ",
"             ,,#       "
};
