/* XPM */
static char *result[] = {
/* columns rows colors chars-per-pixel */
"11 15 9 1 ",
"  c #0C1317",
". c #14605D",
"X c #E17B50",
"o c #07BB79",
"O c #76428A",
"+ c #3494CB",
"@ c #00EDFF",
"# c #DEF9FC",
"$ c None",
/* pixels */
"$$$$XXX$$$$",
"$$$@XXX@$$$",
"$$$@@X@@$$$",
"$$$$O O$$$$",
"$$$$O O$$$$",
"$$$$O O$$$$",
"$$$@+ +O$$$",
"$$@     @$$",
"$@ ..... @$",
"@..##.....@",
"@.o##...o.@",
"@..ooooo..+",
"@.........+",
"$@.......+$",
"$$@@@@+++$$"
};
