/* XPM */
static char *_31dba8f01d446a5c1fd4d0cd243477fouL0XV41bm8YNrKL[] = {
/* columns rows colors chars-per-pixel */
"23 38 20 1 ",
"  c None",
". c #131313",
"X c #1C121C",
"o c #391F21",
"O c #272727",
"+ c gray24",
"@ c #571C27",
"# c #5D2C28",
"$ c #2A2F4E",
"% c #424C6E",
"& c #891E2B",
"* c #C42430",
"= c #8A4836",
"- c #BF6F4A",
"; c #E69C69",
": c #0069AA",
"> c #92A1B9",
", c #B4B4B4",
"< c #F6CA9F",
"1 c white",
/* pixels */
"                       ",
"                       ",
"                       ",
"                       ",
"           o##o        ",
"         o###oooo      ",
"        o###oooooo     ",
"        o#####oooo     ",
"       o########ooo    ",
"       o##oo######ooo  ",
"      o##ooo###ooooo   ",
"  $%   oooo--o#oooo    ",
"  $$=   ooXX--oooooo   ",
"   =-- %oo1:;;:1oo     ",
"    =-=%%o;<<<<;o      ",
"     =$%>o,;<<;,o      ",
"    $$*==,1,;;,1,@&*   ",
"    $&**==,1111,@&**&  ",
"    $+&**==,,,,@&**&+  ",
"      +***--=&&&***+   ",
"      .&*&&--=&&&*&.   ",
"     ..+&@&&--=&@&+..  ",
"    ,...O@&&O--=@O..., ",
"    ,1,  @@&OO===  ,1, ",
"    ,,  @@&&OO&==@  ,, ",
"    1,  @&&OOOO&&@  ,1 ",
"    <;;@&&&O++O&&&@;;< ",
"    <<;&&&++++++&&&;<< ",
"       &&+++OO+++&&    ",
"       OO++O..O++OO    ",
"       .OOO.  .OOO.    ",
"        ....  ....     ",
"         ..    ..      ",
"        ###    ###     ",
"       ==##    ##==    ",
"       <;#      #;<    ",
"                       ",
"                       "
};
