/* XPM */
static char *_5d9a0e64fb34627ccafd46aa9e9581aevVheSgXDT1UskKs[] = {
/* columns rows colors chars-per-pixel */
"23 38 20 1 ",
"  c None",
". c #131313",
"X c #1C121C",
"o c #391F21",
"O c #272727",
"+ c gray24",
"@ c #571C27",
"# c #5D2C28",
"$ c #2A2F4E",
"% c #424C6E",
"& c #891E2B",
"* c #C42430",
"= c #8A4836",
"- c #BF6F4A",
"; c #E69C69",
": c #0069AA",
"> c #92A1B9",
", c #B4B4B4",
"< c #F6CA9F",
"1 c white",
/* pixels */
"                       ",
"                       ",
"           o##o        ",
"         o###oooo      ",
"        o###oooooo     ",
"        o#####oooo     ",
"       o########ooo    ",
"       o##oo######oo   ",
"       ##ooo###ooooo   ",
"  $%   oooo-oo#ooooo   ",
"  $$=  oooXX--ooooo    ",
"   =-- %oo1:;;:1ooo    ",
"    =-=%%o;<<<<;o      ",
"     =$%>o,;<<;,o      ",
"    $$$==,1,;;,1,@&    ",
"    $$**==,1111,@&**   ",
"    $$***==,,,,@&***   ",
"     &&***--=&&&***&&  ",
"     ++&*&&--=&&&*&++  ",
"      .+&@&&--=&@&+.   ",
"     ,..O@&&O--=@O..,  ",
"     ,1, @@&OO=== ,1,  ",
"     ,,  @@&OO&==  ,,  ",
"     1,  @&&OO&&@  ,1  ",
"     <; @&&O++O&&@ ;<  ",
"     <<;&&&++++&&&;<<  ",
"      ;;&&&+OO+&&&;;   ",
"       O@&&+OO+&&@O    ",
"       OO++O..O++OO    ",
"       .OOO.  .OOO.    ",
"        .OO.  .OO.     ",
"        ....  ....     ",
"         ..    ..      ",
"        ==#    #==     ",
"       ==##    ##==    ",
"       <;#      #;<    ",
"                       ",
"                       "
};
